<svg width="65" height="54" viewBox="0 0 65 54" fill="none" xmlns="http://www.w3.org/2000/svg">
<path d="M1.65683 50.5863C1.4602 50.5863 1.27164 50.5077 1.1326 50.3679C0.993558 50.228 0.915436 50.0384 0.915436 49.8406V41.3544C0.925297 39.0236 1.79746 36.7799 3.36203 35.0605C5.21552 33.0322 8.15146 30.5862 11.6212 30.5862H12.0364L12.2588 30.8547C15.4023 34.7622 18.2789 34.8219 18.3086 34.8219C18.3382 34.8219 21.7487 34.8965 25.3222 30.8398L25.5891 30.5266L26.0043 30.6012C29.0553 30.9917 31.905 32.3439 34.1448 34.464C34.8062 35.1221 35.3437 35.8952 35.7314 36.7458C35.7733 36.835 35.7973 36.9315 35.8021 37.0299C35.8068 37.1284 35.7923 37.2268 35.7592 37.3196C35.7262 37.4124 35.6753 37.4977 35.6094 37.5707C35.5436 37.6437 35.4641 37.703 35.3755 37.7451C35.2869 37.7872 35.191 37.8114 35.0931 37.8162C34.9952 37.821 34.8974 37.8063 34.8051 37.7731C34.7129 37.7398 34.628 37.6887 34.5554 37.6224C34.4828 37.5562 34.4239 37.4763 34.3821 37.3872C34.0673 36.6882 33.6303 36.0517 33.092 35.508C31.1616 33.6732 28.7194 32.4763 26.0932 32.0777C22.1194 36.3879 18.3679 36.2686 18.2048 36.2537C18.0417 36.2388 14.824 36.2537 11.2802 32.0329C8.49251 32.1821 6.0459 34.2552 4.45931 36.0001C3.13984 37.4603 2.41469 39.3663 2.42789 41.3394V49.8257C2.43 49.9274 2.41138 50.0285 2.37318 50.1227C2.33498 50.217 2.278 50.3023 2.20577 50.3736C2.13355 50.4448 2.04759 50.5005 1.95318 50.5371C1.85878 50.5736 1.75792 50.5904 1.65683 50.5863Z" fill="#718096"/>
<path d="M7.94796 54C7.75174 54 7.56356 53.9221 7.42481 53.7833C7.28606 53.6446 7.2081 53.4564 7.2081 53.2601V40.9932C7.2081 40.797 7.28606 40.6088 7.42481 40.4701C7.56356 40.3313 7.75174 40.2534 7.94796 40.2534C8.143 40.2572 8.329 40.3363 8.46693 40.4743C8.60487 40.6122 8.68403 40.7982 8.68782 40.9932V53.2601C8.68782 53.4564 8.60986 53.6446 8.47111 53.7833C8.33236 53.9221 8.14418 54 7.94796 54Z" fill="#718096"/>
<path d="M29.7459 54C29.5497 54 29.3615 53.922 29.2228 53.7833C29.084 53.6445 29.0061 53.4564 29.0061 53.2601V40.9932C29.0061 40.797 29.084 40.6088 29.2228 40.4701C29.3615 40.3313 29.5497 40.2534 29.7459 40.2534C29.941 40.2572 30.127 40.3363 30.2649 40.4743C30.4028 40.6122 30.482 40.7982 30.4858 40.9932V53.2601C30.4858 53.4564 30.4078 53.6445 30.2691 53.7833C30.1303 53.922 29.9422 54 29.7459 54Z" fill="#718096"/>
<path d="M25.7591 32.2037C25.6614 32.2232 25.5608 32.2232 25.4631 32.2037C25.3299 32.2037 22.119 30.724 22.119 25.3526C22.119 25.1564 22.1969 24.9682 22.3356 24.8294C22.4744 24.6907 22.6626 24.6127 22.8588 24.6127C23.0539 24.6165 23.2399 24.6957 23.3778 24.8336C23.5157 24.9716 23.5949 25.1576 23.5987 25.3526C23.5987 29.703 26.0402 30.8276 26.0698 30.8424C26.2481 30.9231 26.3872 31.0712 26.4565 31.2543C26.5258 31.4373 26.5198 31.6404 26.4397 31.819C26.3749 31.9414 26.2763 32.0428 26.1557 32.1109C26.0351 32.1791 25.8974 32.2113 25.7591 32.2037Z" fill="#718096"/>
<path d="M11.599 32.2036C11.4451 32.2025 11.2955 32.1534 11.1708 32.0632C11.0462 31.9731 10.9527 31.8463 10.9035 31.7005C10.8711 31.6093 10.8572 31.5124 10.8628 31.4158C10.8685 31.3191 10.8934 31.2245 10.9361 31.1376C10.9789 31.0507 11.0386 30.9733 11.1118 30.9098C11.185 30.8464 11.2701 30.7983 11.3622 30.7683C12.294 30.3693 13.0791 29.691 13.6092 28.827C14.1392 27.963 14.3882 26.9559 14.3216 25.9444C14.3216 25.7482 14.3996 25.56 14.5384 25.4212C14.6771 25.2825 14.8653 25.2045 15.0615 25.2045C15.2565 25.2083 15.4425 25.2875 15.5805 25.4254C15.7184 25.5634 15.7976 25.7494 15.8014 25.9444C15.8641 27.2613 15.5181 28.5653 14.8108 29.6779C14.1035 30.7905 13.0695 31.6572 11.8505 32.1592C11.7708 32.1917 11.685 32.2069 11.599 32.2036Z" fill="#718096"/>
<path d="M19.6014 26.8766C19.3402 26.8911 19.0784 26.8911 18.8172 26.8766C18.6243 26.8405 18.4531 26.7307 18.3398 26.5705C18.2266 26.4103 18.1802 26.2122 18.2105 26.0184C18.2431 25.8267 18.35 25.6556 18.5078 25.5421C18.6656 25.4286 18.8618 25.3817 19.0539 25.4117C19.7914 25.4951 20.5382 25.4208 21.2449 25.1938C21.9515 24.9667 22.6018 24.5921 23.1527 24.0948C25.0172 22.3931 25.8754 19.0933 25.6387 14.5505C24.7086 14.3814 23.8615 13.9068 23.2317 13.2019C22.6018 12.497 22.2251 11.602 22.1613 10.6589C21.6574 10.7116 21.1611 10.8208 20.6816 10.9844C18.61 11.5763 15.8133 12.3754 13.5493 11.0732C13.2789 11.4893 12.9081 11.8308 12.4711 12.0661C12.0341 12.3014 11.5449 12.423 11.0486 12.4197C10.4376 12.4267 9.83857 12.2498 9.32932 11.912C8.82007 11.5743 8.42409 11.0913 8.19275 10.5257C7.83756 9.40573 7.74357 8.21929 7.91799 7.05736C8.09241 5.89544 8.53061 4.78888 9.19897 3.82256C10.0929 2.57844 11.2847 1.57842 12.6652 0.914047C14.0456 0.249674 15.5706 -0.0578335 17.1007 0.0196747C18.5233 -0.0793272 19.9469 0.196516 21.2296 0.819673C22.5123 1.44283 23.6091 2.3915 24.4105 3.57101C25.4113 3.53257 26.4007 3.79368 27.2522 4.32091C28.1036 4.84813 28.7784 5.61748 29.19 6.53045C30.2554 8.57247 30.2406 11.6651 27.148 14.373C27.4439 19.552 26.4377 23.2513 24.1885 25.2785C22.9116 26.3635 21.2761 26.9333 19.6014 26.8766ZM22.1169 9.11996C22.4304 9.11885 22.7361 9.2173 22.99 9.40111C23.1661 9.52758 23.3146 9.68856 23.4266 9.87426C23.5385 10.06 23.6115 10.2665 23.641 10.4813C23.6654 11.1595 23.933 11.8063 24.3948 12.3034C24.8567 12.8006 25.482 13.115 26.1566 13.1892C28.243 11.3543 28.8793 9.11996 27.8583 7.15193C27.5603 6.46856 27.0488 5.90019 26.4005 5.53204C25.7522 5.16388 25.0021 5.01577 24.2625 5.10992L23.7594 5.25789L23.4487 4.82877C22.8034 3.73387 21.8632 2.84248 20.7355 2.25638C19.6078 1.67028 18.338 1.4131 17.0711 1.51419C15.7717 1.42991 14.4723 1.67933 13.2965 2.23875C12.1207 2.79818 11.1075 3.64901 10.3532 4.71039C9.85557 5.46829 9.52213 6.32196 9.37432 7.21647C9.22651 8.11098 9.26759 9.02653 9.49491 9.90422C9.5899 10.2188 9.78687 10.4928 10.0548 10.683C10.3227 10.8732 10.6463 10.9689 10.9746 10.9548C11.2325 10.9589 11.4869 10.8955 11.7128 10.7709C11.9386 10.6463 12.1279 10.4649 12.262 10.2446C12.3266 10.0756 12.4278 9.92296 12.5582 9.79762C12.6887 9.67228 12.8452 9.5773 13.0166 9.51949C13.1777 9.46947 13.348 9.45679 13.5146 9.48243C13.6813 9.50807 13.8399 9.57135 13.9785 9.66746C15.7393 10.8512 18.2253 10.141 20.2229 9.56388C20.7852 9.40111 21.3179 9.25314 21.7914 9.14956L22.1169 9.11996Z" fill="#718096"/>
<path d="M14.9705 26.6399C14.8922 26.654 14.812 26.654 14.7337 26.6399C7.3351 24.006 9.49549 11.9759 9.59907 11.4728C9.63439 11.2765 9.74623 11.1024 9.90996 10.9886C10.0737 10.8748 10.2759 10.8307 10.4721 10.8661C10.6683 10.9014 10.8425 11.0132 10.9563 11.1769C11.07 11.3407 11.1141 11.5429 11.0788 11.7391C11.0788 11.8575 9.09598 23.0294 15.2516 25.249C15.4363 25.316 15.5876 25.4525 15.6733 25.6293C15.7589 25.8062 15.7722 26.0095 15.7103 26.196C15.6489 26.3381 15.5445 26.4573 15.4118 26.537C15.2791 26.6166 15.1247 26.6526 14.9705 26.6399Z" fill="#718096"/>
<path d="M18.7959 49.1999L21.3597 50.7506C21.8293 51.0348 22.4038 50.6147 22.2802 50.0834L21.6007 47.1674L23.868 45.2028C24.2819 44.8444 24.0595 44.1649 23.5158 44.1216L20.5319 43.8683L19.3642 41.1129C19.1542 40.6125 18.4375 40.6125 18.2275 41.1129L17.0598 43.8621L14.0759 44.1154C13.5322 44.1587 13.3098 44.8383 13.7237 45.1966L15.991 47.1612L15.3115 50.0772C15.1879 50.6085 15.7625 51.0286 16.232 50.7444L18.7959 49.1999Z" fill="#33B3DD"/>
<rect x="35.68" y="34.5422" width="28.1544" height="18.4995" rx="1.25" stroke="#E2E8F0" stroke-width="1.5"/>
<mask id="path-10-inside-1_362_1780" fill="white">
<path d="M43.6537 34.8876H56.7366V31.6545C56.7366 30.5499 55.8411 29.6545 54.7366 29.6545H45.6537C44.5492 29.6545 43.6537 30.5499 43.6537 31.6545V34.8876Z"/>
</mask>
<path d="M42.1537 35.8876H58.2366L55.2366 33.8876H45.1537L42.1537 35.8876ZM58.2366 31.6545C58.2366 29.7215 56.6696 28.1545 54.7366 28.1545H45.6537C43.7208 28.1545 42.1537 29.7215 42.1537 31.6545H45.1537C45.1537 31.3783 45.3776 31.1545 45.6537 31.1545H54.7366C55.0127 31.1545 55.2366 31.3783 55.2366 31.6545H58.2366ZM45.6537 28.1545C43.7208 28.1545 42.1537 29.7215 42.1537 31.6545V35.8876L45.1537 33.8876V31.6545C45.1537 31.3783 45.3776 31.1545 45.6537 31.1545V28.1545ZM58.2366 35.8876V31.6545C58.2366 29.7215 56.6696 28.1545 54.7366 28.1545V31.1545C55.0127 31.1545 55.2366 31.3783 55.2366 31.6545V33.8876L58.2366 35.8876Z" fill="#E2E8F0" mask="url(#path-10-inside-1_362_1780)"/>
</svg>
