<svg width="48" height="54" viewBox="0 0 48 54" fill="none" xmlns="http://www.w3.org/2000/svg">
<path d="M34.8033 50.57C34.6073 50.57 34.4193 50.4921 34.2806 50.3535C34.142 50.2149 34.0641 50.0268 34.0641 49.8308V40.546C34.0855 38.6963 33.3794 36.9123 32.0978 35.5784C30.1865 33.7818 27.7727 32.611 25.1786 32.2223C21.2163 36.5098 17.4609 36.3915 17.3131 36.362C17.1653 36.3324 13.957 36.362 10.4086 32.1779C7.7417 32.6031 5.32819 34.0049 3.63728 36.1106C2.33078 37.5626 1.61371 39.4503 1.62659 41.4035V49.8308C1.62659 50.0268 1.5487 50.2149 1.41006 50.3535C1.27143 50.4921 1.08342 50.57 0.887358 50.57C0.691301 50.57 0.50324 50.4921 0.364607 50.3535C0.225974 50.2149 0.148125 50.0268 0.148125 49.8308V41.4035C0.137388 39.0814 0.99718 36.8395 2.55799 35.1201C4.39129 33.0946 7.31866 30.6846 10.7931 30.6846H11.1479L11.3697 30.9656C14.4892 34.8244 17.3574 34.8835 17.387 34.8835C17.4166 34.8835 20.8319 34.9722 24.395 30.936L24.6611 30.6255L25.0603 30.6994C28.1128 31.0806 30.9654 32.4214 33.2066 34.5287C34.7731 36.1375 35.6395 38.3007 35.6165 40.546V49.8308C35.6148 49.9337 35.592 50.0353 35.5496 50.1291C35.5072 50.2229 35.446 50.307 35.3698 50.3763C35.2936 50.4455 35.2041 50.4985 35.1066 50.5318C35.0092 50.5651 34.906 50.5781 34.8033 50.57Z" fill="#718096"/>
<path d="M7.08115 54C6.88628 53.9962 6.70046 53.9171 6.56264 53.7793C6.42482 53.6415 6.3457 53.4556 6.34192 53.2608V41.0043C6.34192 40.8082 6.41981 40.6202 6.55845 40.4816C6.69708 40.3429 6.8851 40.2651 7.08115 40.2651C7.27721 40.2651 7.46527 40.3429 7.6039 40.4816C7.74254 40.6202 7.82039 40.8082 7.82039 41.0043V53.2608C7.82039 53.4568 7.74254 53.6449 7.6039 53.7835C7.46527 53.9221 7.27721 54 7.08115 54Z" fill="#718096"/>
<path d="M29.0383 54C28.8422 54 28.6542 53.9221 28.5156 53.7835C28.377 53.6449 28.2991 53.4568 28.2991 53.2608V41.0043C28.2991 40.8082 28.377 40.6202 28.5156 40.4816C28.6542 40.3429 28.8422 40.2651 29.0383 40.2651C29.2344 40.2651 29.4224 40.3429 29.561 40.4816C29.6996 40.6202 29.7775 40.8082 29.7775 41.0043V53.2608C29.7775 53.4568 29.6996 53.6449 29.561 53.7835C29.4224 53.9221 29.2344 54 29.0383 54Z" fill="#718096"/>
<path d="M24.5988 32.104C24.4658 32.104 21.2427 30.6255 21.2427 25.2735H22.7212C22.7212 29.561 25.1015 30.7142 25.205 30.7586L24.5988 32.104Z" fill="#718096"/>
<path d="M10.7466 32.1631C10.5946 32.163 10.4464 32.1162 10.3221 32.0289C10.1978 31.9416 10.1033 31.8181 10.0517 31.6752C10.0191 31.583 10.0051 31.4853 10.0105 31.3876C10.0159 31.29 10.0407 31.1944 10.0833 31.1064C10.1259 31.0184 10.1856 30.9397 10.2588 30.8749C10.3321 30.8102 10.4175 30.7605 10.51 30.729C11.4412 30.3348 12.2264 29.6602 12.7563 28.799C13.2863 27.9378 13.5347 26.9329 13.4669 25.924C13.4669 25.7279 13.5448 25.5399 13.6835 25.4013C13.8221 25.2626 14.0101 25.1847 14.2062 25.1847C14.4022 25.1847 14.5902 25.2626 14.7289 25.4013C14.8675 25.5399 14.9454 25.7279 14.9454 25.924C15.018 27.2396 14.6781 28.5451 13.9731 29.6583C13.2681 30.7715 12.2331 31.6368 11.0127 32.1335C10.927 32.1617 10.8364 32.1718 10.7466 32.1631Z" fill="#718096"/>
<path d="M18.7487 26.8998C18.4833 26.9262 18.2158 26.9262 17.9503 26.8998C17.7543 26.8664 17.5795 26.7566 17.4644 26.5944C17.3494 26.4322 17.3035 26.2309 17.3368 26.0349C17.3701 25.8388 17.48 25.664 17.6422 25.5489C17.8044 25.4339 18.0056 25.388 18.2017 25.4213C18.9361 25.5006 19.679 25.4244 20.382 25.1977C21.0851 24.971 21.7325 24.5989 22.2822 24.1055C24.1599 22.3904 25.0174 19.1082 24.7808 14.5693C23.8593 14.3814 23.0259 13.8937 22.4107 13.1822C21.7956 12.4708 21.4333 11.5757 21.3804 10.6366C20.8778 10.6948 20.3825 10.8038 19.9019 10.9619C17.8321 11.5533 15.0378 12.3516 12.761 11.0654C12.489 11.4784 12.1177 11.8167 11.6812 12.0491C11.2447 12.2816 10.7569 12.4008 10.2623 12.396C9.648 12.4308 9.03895 12.2651 8.52697 11.9238C8.01498 11.5825 7.62779 11.084 7.42367 10.5036C7.07861 9.38403 6.98849 8.20146 7.1599 7.04256C7.3313 5.88367 7.7599 4.77782 8.41426 3.8061C9.31008 2.56675 10.5017 1.5712 11.8806 0.91013C13.2596 0.249063 14.782 -0.0565156 16.3093 0.0212256C17.7333 -0.0818586 19.1593 0.191796 20.4439 0.814671C21.7286 1.43755 22.8267 2.38769 23.6276 3.56955C24.6001 3.54597 25.5586 3.80422 26.3875 4.31314C27.2165 4.82207 27.8806 5.55994 28.2996 6.43777C29.3493 8.47806 29.3493 11.5828 26.2446 14.2737C26.5403 19.4483 25.5349 23.1445 23.2876 25.1847C22.0422 26.3036 20.4229 26.9155 18.7487 26.8998ZM21.2621 9.15815C21.5753 9.15704 21.8807 9.2554 22.1344 9.43906C22.3111 9.55989 22.4595 9.71766 22.5692 9.90145C22.679 10.0852 22.7476 10.2907 22.7702 10.5036C22.7919 11.1844 23.0602 11.8342 23.5253 12.3319C23.9904 12.8296 24.6205 13.1414 25.2983 13.2092C27.3682 11.3906 28.0039 9.15815 26.9838 7.17701C26.6876 6.49393 26.1763 5.92636 25.5277 5.56072C24.8791 5.19507 24.1288 5.05137 23.3911 5.15151L22.8884 5.28457L22.5927 4.8706C21.9469 3.77423 21.0051 2.88204 19.8755 2.29629C18.7458 1.71055 17.474 1.45496 16.2058 1.55883C14.9237 1.47525 13.6412 1.71747 12.478 2.26292C11.3147 2.80837 10.3084 3.63932 9.55266 4.6784C9.04826 5.43517 8.71092 6.29072 8.56306 7.18808C8.4152 8.08544 8.46024 9.00401 8.69517 9.8826C8.79277 10.1941 8.99072 10.4646 9.25817 10.6518C9.52561 10.839 9.84752 10.9325 10.1736 10.9175C10.4299 10.9231 10.6831 10.862 10.9086 10.7402C11.1341 10.6184 11.3241 10.44 11.4599 10.2226C11.5251 10.0517 11.6281 9.89775 11.7612 9.77229C11.8944 9.64683 12.0542 9.55312 12.2287 9.4982C12.3885 9.4461 12.558 9.431 12.7245 9.45405C12.891 9.47711 13.05 9.5377 13.1897 9.63126C14.949 10.8288 17.4329 10.1192 19.4141 9.54256C19.9907 9.37992 20.5081 9.23208 20.9812 9.12858C21.0732 9.10679 21.1676 9.09686 21.2621 9.09901V9.15815Z" fill="#718096"/>
<path d="M14.1758 26.6633C14.0926 26.6773 14.0077 26.6773 13.9245 26.6633C6.53214 24.0168 8.70548 12.0117 8.79419 11.4942C8.83013 11.3024 8.94045 11.1326 9.10109 11.0218C9.26173 10.911 9.45967 10.8683 9.65172 10.9028C9.84352 10.9388 10.0133 11.0491 10.1241 11.2097C10.2349 11.3704 10.2777 11.5683 10.2431 11.7603C10.2431 11.8786 8.26194 23.0558 14.4271 25.2735C14.5242 25.29 14.6171 25.3255 14.7005 25.3779C14.7838 25.4303 14.8561 25.4986 14.9131 25.5789C14.97 25.6592 15.0106 25.75 15.0325 25.846C15.0545 25.942 15.0572 26.0413 15.0407 26.1384C15.0242 26.2355 14.9888 26.3284 14.9364 26.4117C14.884 26.4951 14.8157 26.5674 14.7353 26.6243C14.655 26.6813 14.5643 26.7219 14.4683 26.7438C14.3723 26.7657 14.2729 26.7685 14.1758 26.752V26.6633Z" fill="#718096"/>
<path d="M17.889 53.2461C17.3334 53.2429 16.8017 53.0196 16.4105 52.6252L14.2075 49.9343C13.9992 49.6623 13.8529 49.3479 13.7789 49.0134C13.7048 48.6788 13.7048 48.3321 13.7788 47.9976L15.9965 39.5407C16.0455 39.3447 16.1704 39.1761 16.3437 39.0721C16.517 38.9682 16.7245 38.9373 16.9205 38.9863C17.1166 39.0353 17.2852 39.1602 17.3891 39.3335C17.4931 39.5068 17.524 39.7143 17.4749 39.9103L15.2572 48.3524C15.2333 48.4684 15.2355 48.5883 15.2636 48.7034C15.2917 48.8184 15.3451 48.9258 15.4199 49.0177L17.5489 51.6346C17.6726 51.7204 17.8197 51.7664 17.9703 51.7664C18.1209 51.7664 18.2679 51.7204 18.3916 51.6346L21.0233 49.0029C21.089 48.9323 21.1377 48.8477 21.1659 48.7555C21.1941 48.6633 21.2009 48.5659 21.1859 48.4707L18.362 35.9776C18.3404 35.8834 18.3378 35.7858 18.3545 35.6905C18.3711 35.5953 18.4066 35.5043 18.459 35.423C18.5114 35.3417 18.5795 35.2717 18.6593 35.2172C18.7392 35.1626 18.8291 35.1246 18.9239 35.1053C19.0172 35.0813 19.1144 35.0766 19.2096 35.0914C19.3047 35.1062 19.3959 35.1403 19.4775 35.1914C19.5591 35.2426 19.6295 35.3099 19.6843 35.3891C19.739 35.4684 19.7771 35.5579 19.7961 35.6524L22.62 48.1602C22.6933 48.4962 22.6816 48.8452 22.5861 49.1756C22.4906 49.5061 22.3142 49.8075 22.073 50.0526L19.4413 52.6843C19.234 52.878 18.9895 53.0276 18.7227 53.1242C18.4559 53.2208 18.1723 53.2622 17.889 53.2461Z" fill="#E2E8F0"/>
<path d="M13.813 18.9604C13.2878 18.9587 12.7749 18.8018 12.3388 18.5092C11.9027 18.2167 11.5628 17.8017 11.362 17.3164C11.1613 16.8312 11.1086 16.2974 11.2106 15.7822C11.3126 15.2671 11.5648 14.7936 11.9353 14.4215C12.4437 13.9378 13.1186 13.6682 13.8204 13.6682C14.5221 13.6682 15.1969 13.9378 15.7054 14.4215C16.1993 14.9246 16.476 15.6015 16.476 16.3065C16.476 17.0116 16.1993 17.6884 15.7054 18.1916C15.4571 18.4394 15.1618 18.635 14.8368 18.7671C14.5118 18.8991 14.1637 18.9648 13.813 18.9604ZM13.813 14.3919C13.5623 14.3894 13.3138 14.4379 13.0825 14.5345C12.8512 14.6311 12.642 14.7737 12.4675 14.9537C12.2856 15.1289 12.1408 15.339 12.0419 15.5714C11.943 15.8039 11.892 16.0539 11.892 16.3065C11.892 16.5591 11.943 16.8091 12.0419 17.0416C12.1408 17.274 12.2856 17.4841 12.4675 17.6593C12.8275 18.0159 13.3137 18.216 13.8204 18.216C14.327 18.216 14.8132 18.0159 15.1731 17.6593C15.4373 17.3898 15.6164 17.0484 15.6878 16.6778C15.7593 16.3071 15.7201 15.9237 15.575 15.5752C15.4299 15.2267 15.1855 14.9287 14.8721 14.7183C14.5588 14.5078 14.1904 14.3943 13.813 14.3919Z" fill="#33B3DD"/>
<path d="M20.8161 18.9604C20.4673 18.9623 20.1216 18.8953 19.7988 18.7632C19.476 18.631 19.1826 18.4364 18.9352 18.1905C18.6879 17.9445 18.4917 17.6521 18.3578 17.3301C18.2238 17.008 18.1549 16.6627 18.1549 16.3139C18.1549 15.9625 18.224 15.6145 18.3585 15.2897C18.4929 14.965 18.69 14.67 18.9385 14.4215C19.4469 13.9378 20.1218 13.6682 20.8235 13.6682C21.5252 13.6682 22.2001 13.9378 22.7086 14.4215C23.08 14.7945 23.3324 15.2693 23.4339 15.7858C23.5355 16.3024 23.4815 16.8374 23.279 17.3232C23.0764 17.8091 22.7343 18.224 22.2959 18.5154C21.8575 18.8068 21.3425 18.9616 20.8161 18.9604ZM20.8161 14.3919C20.4355 14.3872 20.0622 14.4965 19.7443 14.7058C19.4263 14.915 19.1783 15.2146 19.032 15.566C18.8857 15.9174 18.8479 16.3045 18.9235 16.6776C18.999 17.0506 19.1845 17.3925 19.456 17.6593C19.8202 18.0133 20.3082 18.2114 20.8161 18.2114C21.3241 18.2114 21.8121 18.0133 22.1763 17.6593C22.3547 17.4821 22.4962 17.2713 22.5928 17.0391C22.6894 16.8069 22.7392 16.558 22.7392 16.3065C22.7392 16.0551 22.6894 15.8061 22.5928 15.5739C22.4962 15.3417 22.3547 15.131 22.1763 14.9537C21.9997 14.7726 21.7879 14.6294 21.5541 14.5328C21.3202 14.4362 21.0691 14.3883 20.8161 14.3919Z" fill="#33B3DD"/>
<path d="M18.5395 16.447C18.4927 16.4489 18.4459 16.4406 18.4026 16.4227C18.3592 16.4049 18.3202 16.3778 18.2882 16.3435C18.032 16.0968 17.6902 15.959 17.3346 15.959C16.979 15.959 16.6372 16.0968 16.381 16.3435C16.3478 16.3788 16.3077 16.407 16.2632 16.4263C16.2187 16.4455 16.1708 16.4555 16.1223 16.4555C16.0738 16.4555 16.0258 16.4455 15.9813 16.4263C15.9368 16.407 15.8967 16.3788 15.8635 16.3435C15.7958 16.2744 15.7579 16.1815 15.7579 16.0847C15.7579 15.988 15.7958 15.8951 15.8635 15.826C16.2567 15.436 16.7881 15.2171 17.342 15.2171C17.8958 15.2171 18.4272 15.436 18.8204 15.826C18.8691 15.8784 18.9015 15.9438 18.9137 16.0143C18.9259 16.0848 18.9174 16.1573 18.8892 16.223C18.861 16.2887 18.8144 16.3449 18.755 16.3846C18.6955 16.4244 18.6258 16.446 18.5543 16.447H18.5395Z" fill="#33B3DD"/>
<path d="M25.3568 16.7871H23.1095C23.0115 16.7871 22.9175 16.7482 22.8482 16.6789C22.7788 16.6096 22.7399 16.5156 22.7399 16.4175C22.7399 16.3195 22.7788 16.2255 22.8482 16.1562C22.9175 16.0869 23.0115 16.0479 23.1095 16.0479H25.3568C25.4548 16.0479 25.5488 16.0869 25.6182 16.1562C25.6875 16.2255 25.7264 16.3195 25.7264 16.4175C25.7264 16.5156 25.6875 16.6096 25.6182 16.6789C25.5488 16.7482 25.4548 16.7871 25.3568 16.7871Z" fill="#33B3DD"/>
<path d="M11.3845 16.7871H9.21115C9.11313 16.7871 9.01914 16.7482 8.94982 16.6789C8.88051 16.6096 8.84154 16.5156 8.84154 16.4175C8.84154 16.3195 8.88051 16.2255 8.94982 16.1562C9.01914 16.0869 9.11313 16.0479 9.21115 16.0479H11.3845C11.4825 16.0479 11.5766 16.0869 11.6459 16.1562C11.7152 16.2255 11.7541 16.3195 11.7541 16.4175C11.7541 16.5156 11.7152 16.6096 11.6459 16.6789C11.5766 16.7482 11.4825 16.7871 11.3845 16.7871Z" fill="#33B3DD"/>
<path d="M40.0866 26.1033C41.0092 26.3004 41.845 26.7865 42.4725 27.4911C43.1 28.1957 43.4864 29.082 43.5757 30.0213C43.5757 30.1987 43.9158 30.2135 43.9158 30.0213C43.9158 28.2767 46.1334 26.3399 47.6267 26.059C47.745 26.059 47.745 25.8372 47.6267 25.8372C46.6409 25.8157 45.7 25.4205 44.9946 24.7315C44.2891 24.0426 43.8718 23.1113 43.8271 22.1262C43.8271 22.0228 43.6497 22.0228 43.6497 22.1262C43.6655 23.0884 43.2994 24.0176 42.6316 24.7103C41.9638 25.4031 41.0486 25.803 40.0866 25.8224C40.0665 25.8154 40.045 25.8134 40.024 25.8164C40.003 25.8193 39.983 25.8273 39.9657 25.8396C39.9484 25.8519 39.9343 25.8682 39.9246 25.8871C39.9148 25.9059 39.9097 25.9269 39.9097 25.9481C39.9097 25.9693 39.9148 25.9902 39.9246 26.0091C39.9343 26.028 39.9484 26.0442 39.9657 26.0565C39.983 26.0688 40.003 26.0768 40.024 26.0798C40.045 26.0828 40.0665 26.0807 40.0866 26.0738" fill="#33B3DD"/>
<path d="M30.605 17.5115C32.7488 17.5115 36.6224 20.8676 36.6224 24.3272C36.6224 24.6525 37.2138 24.6673 37.2138 24.3272C37.2138 21.3703 41.0282 17.9994 43.6156 17.4967C43.8078 17.4967 43.8078 17.1271 43.6156 17.1419C41.9132 17.103 40.2885 16.4213 39.0681 15.2337C37.8477 14.0462 37.1218 12.4408 37.0364 10.7401C37.0364 10.5627 36.7407 10.5627 36.7407 10.7401C36.7728 12.4088 36.1473 14.0232 34.9993 15.2348C33.8514 16.4464 32.2731 17.1579 30.605 17.2158C30.4868 17.2158 30.4868 17.4819 30.605 17.4819" fill="#33B3DD"/>
</svg>
