<svg width="45" height="54" viewBox="0 0 45 54" fill="none" xmlns="http://www.w3.org/2000/svg">
<path d="M34.9314 50.551C34.7355 50.551 34.5477 50.4732 34.4091 50.3347C34.2706 50.1961 34.1928 50.0083 34.1928 49.8124V40.5351C34.2142 38.6869 33.5086 36.9043 32.228 35.5715C30.3183 33.7764 27.9064 32.6065 25.3144 32.2181C21.3553 36.5021 17.603 36.384 17.4553 36.3544C17.3076 36.3249 14.1019 36.3544 10.5564 32.1737C7.89162 32.5986 5.48006 33.9992 3.79052 36.1033C2.48507 37.5541 1.76858 39.4403 1.78145 41.3919V49.8124C1.78145 50.0083 1.70362 50.1961 1.5651 50.3347C1.42658 50.4732 1.23871 50.551 1.04281 50.551C0.846915 50.551 0.659005 50.4732 0.520484 50.3347C0.381962 50.1961 0.304176 50.0083 0.304176 49.8124V41.3919C0.293448 39.0716 1.15255 36.8316 2.71209 35.1135C4.54391 33.0897 7.46893 30.6817 10.9405 30.6817H11.2951L11.5167 30.9624C14.6337 34.8181 17.4996 34.8772 17.5291 34.8772C17.5587 34.8772 20.9712 34.9658 24.5315 30.9328L24.7974 30.6226L25.1962 30.6965C28.2463 31.0773 31.0966 32.4171 33.336 34.5226C34.9012 36.1301 35.7669 38.2916 35.744 40.5351V49.8124C35.7423 49.9152 35.7195 50.0167 35.6771 50.1104C35.6347 50.2041 35.5736 50.2882 35.4974 50.3574C35.4213 50.4266 35.3318 50.4795 35.2345 50.5128C35.1371 50.5461 35.034 50.5591 34.9314 50.551Z" fill="#718096"/>
<path d="M7.23369 53.9782C7.03898 53.9744 6.85331 53.8954 6.7156 53.7576C6.57789 53.6199 6.49884 53.4342 6.49506 53.2395V40.9929C6.49506 40.797 6.57289 40.6092 6.71141 40.4706C6.84993 40.3321 7.03779 40.2543 7.23369 40.2543C7.42959 40.2543 7.6175 40.3321 7.75602 40.4706C7.89454 40.6092 7.97233 40.797 7.97233 40.9929V53.2395C7.97233 53.4354 7.89454 53.6233 7.75602 53.7618C7.6175 53.9003 7.42959 53.9782 7.23369 53.9782Z" fill="#718096"/>
<path d="M29.1698 53.9782C28.9739 53.9782 28.786 53.9003 28.6475 53.7618C28.509 53.6233 28.4312 53.4354 28.4312 53.2395V40.9929C28.4312 40.797 28.509 40.6092 28.6475 40.4706C28.786 40.3321 28.9739 40.2543 29.1698 40.2543C29.3657 40.2543 29.5536 40.3321 29.6921 40.4706C29.8306 40.6092 29.9084 40.797 29.9084 40.9929V53.2395C29.9084 53.4354 29.8306 53.6233 29.6921 53.7618C29.5536 53.9003 29.3657 53.9782 29.1698 53.9782Z" fill="#718096"/>
<path d="M24.7407 32.0999C24.6077 32.0999 21.3873 30.6226 21.3873 25.2749H22.8645C22.8645 29.559 25.2429 30.7113 25.3463 30.7556L24.7407 32.0999Z" fill="#718096"/>
<path d="M10.8963 32.1589C10.7445 32.1588 10.5964 32.112 10.4721 32.0248C10.3479 31.9376 10.2536 31.8142 10.202 31.6714C10.1694 31.5793 10.1554 31.4816 10.1608 31.3841C10.1662 31.2865 10.191 31.191 10.2336 31.1031C10.2762 31.0151 10.3358 30.9365 10.4089 30.8718C10.4821 30.8071 10.5674 30.7575 10.6599 30.7259C11.5903 30.3321 12.3749 29.658 12.9044 28.7975C13.4339 27.937 13.6821 26.9329 13.6145 25.9248C13.6145 25.7289 13.6923 25.541 13.8308 25.4025C13.9693 25.264 14.1572 25.1862 14.3531 25.1862C14.549 25.1862 14.7369 25.264 14.8754 25.4025C15.0139 25.541 15.0917 25.7289 15.0917 25.9248C15.1643 27.2394 14.8246 28.5438 14.1202 29.6561C13.4158 30.7684 12.3816 31.633 11.1622 32.1294C11.0766 32.1575 10.986 32.1676 10.8963 32.1589Z" fill="#718096"/>
<path d="M18.8915 26.8999C18.6262 26.9263 18.359 26.9263 18.0938 26.8999C17.8979 26.8666 17.7232 26.7568 17.6083 26.5947C17.4933 26.4327 17.4474 26.2316 17.4807 26.0357C17.514 25.8398 17.6238 25.6651 17.7858 25.5501C17.9479 25.4352 18.149 25.3893 18.3449 25.4226C19.0787 25.5018 19.821 25.4257 20.5235 25.1992C21.226 24.9727 21.8729 24.6008 22.4222 24.1078C24.2983 22.3942 25.1551 19.1146 24.9188 14.5794C23.9979 14.3916 23.1652 13.9043 22.5506 13.1934C21.9359 12.4825 21.5739 11.5881 21.521 10.6499C21.0189 10.708 20.5239 10.8169 20.0438 10.9749C17.9756 11.5658 15.1836 12.3635 12.9086 11.0783C12.6368 11.491 12.2658 11.8289 11.8297 12.0612C11.3935 12.2935 10.9061 12.4127 10.412 12.4078C9.79812 12.4426 9.18955 12.277 8.67799 11.936C8.16642 11.595 7.77953 11.0969 7.57558 10.5169C7.2308 9.39828 7.14076 8.21667 7.31202 7.05871C7.48329 5.90075 7.91154 4.79579 8.56537 3.82486C9.46046 2.58651 10.6511 1.59176 12.0289 0.93123C13.4068 0.270697 14.928 -0.0346346 16.454 0.0430438C17.8768 -0.0599571 19.3017 0.213476 20.5853 0.835849C21.869 1.45822 22.9661 2.40759 23.7665 3.5885C24.7381 3.56494 25.6959 3.82298 26.5242 4.33149C27.3525 4.84001 28.016 5.57728 28.4347 6.45441C29.4835 8.49304 29.4836 11.5953 26.3813 14.284C26.6767 19.4544 25.6722 23.1476 23.4267 25.1862C22.1823 26.3042 20.5643 26.9156 18.8915 26.8999ZM21.4029 9.17259C21.7158 9.17148 22.021 9.26976 22.2745 9.45327C22.451 9.574 22.5993 9.73164 22.7089 9.91528C22.8186 10.0989 22.8871 10.3042 22.9097 10.5169C22.9314 11.1972 23.1995 11.8464 23.6642 12.3438C24.1289 12.8411 24.7585 13.1526 25.4358 13.2203C27.504 11.4033 28.1392 9.17259 27.1199 7.19304C26.824 6.51052 26.313 5.94341 25.665 5.57806C25.017 5.21271 24.2673 5.06913 23.5301 5.16918L23.0278 5.30213L22.7324 4.8885C22.0871 3.79301 21.1461 2.90154 20.0173 2.31627C18.8886 1.731 17.6178 1.47562 16.3506 1.57941C15.0695 1.4959 13.7881 1.73791 12.6258 2.28293C11.4634 2.82794 10.4579 3.65822 9.70285 4.69645C9.19886 5.45261 8.86179 6.30748 8.71405 7.20411C8.56631 8.10075 8.61131 9.01857 8.84605 9.89645C8.94357 10.2077 9.14137 10.478 9.4086 10.665C9.67583 10.8521 9.99747 10.9455 10.3233 10.9305C10.5794 10.9361 10.8324 10.8751 11.0577 10.7534C11.283 10.6316 11.4729 10.4534 11.6085 10.2362C11.6737 10.0654 11.7766 9.91159 11.9097 9.78623C12.0427 9.66087 12.2024 9.56724 12.3767 9.51236C12.5364 9.4603 12.7058 9.44522 12.8721 9.46825C13.0385 9.49128 13.1974 9.55183 13.3369 9.64532C15.0949 10.8419 17.5767 10.1328 19.5563 9.55668C20.1324 9.39418 20.6495 9.24645 21.1222 9.14304C21.2141 9.12127 21.3084 9.11134 21.4029 9.1135V9.17259Z" fill="#718096"/>
<path d="M14.3224 26.6635C14.2393 26.6775 14.1544 26.6775 14.0713 26.6635C6.68493 24.0192 8.85652 12.0237 8.94515 11.5067C8.98107 11.315 9.0913 11.1454 9.25181 11.0347C9.41231 10.924 9.6101 10.8812 9.802 10.9158C9.99364 10.9517 10.1633 11.0619 10.274 11.2224C10.3847 11.3829 10.4274 11.5807 10.3929 11.7726C10.3929 11.8908 8.41333 23.0589 14.5736 25.2749C14.6706 25.2913 14.7634 25.3268 14.8467 25.3791C14.93 25.4315 15.0022 25.4997 15.0591 25.58C15.116 25.6602 15.1566 25.7509 15.1785 25.8468C15.2004 25.9428 15.2031 26.0421 15.1866 26.1391C15.1702 26.2361 15.1347 26.3289 15.0824 26.4122C15.03 26.4955 14.9618 26.5676 14.8815 26.6246C14.8013 26.6815 14.7106 26.7221 14.6147 26.744C14.5187 26.7658 14.4194 26.7686 14.3224 26.7521V26.6635Z" fill="#718096"/>
<path d="M38.9439 12.8219C37.7673 12.8219 36.6172 12.473 35.6389 11.8193C34.6606 11.1657 33.8981 10.2366 33.4479 9.14957C32.9976 8.06257 32.8798 6.86645 33.1094 5.71249C33.3389 4.55853 33.9055 3.49855 34.7374 2.66659C35.5694 1.83463 36.6294 1.26805 37.7833 1.03852C38.9373 0.80898 40.1334 0.926787 41.2204 1.37704C42.3074 1.82729 43.2365 2.58977 43.8902 3.56805C44.5439 4.54633 44.8927 5.69648 44.8927 6.87305C44.8891 8.44966 44.2612 9.96066 43.1463 11.0755C42.0315 12.1903 40.5205 12.8183 38.9439 12.8219ZM38.9439 2.30126C38.0397 2.30126 37.1558 2.56939 36.4039 3.07174C35.6521 3.5741 35.0661 4.28812 34.7201 5.1235C34.3741 5.95889 34.2835 6.87812 34.4599 7.76496C34.6363 8.65181 35.0718 9.46642 35.7112 10.1058C36.3505 10.7452 37.1652 11.1806 38.052 11.357C38.9388 11.5334 39.8581 11.4429 40.6935 11.0968C41.5289 10.7508 42.2429 10.1648 42.7452 9.413C43.2476 8.66118 43.5157 7.77727 43.5157 6.87305C43.5157 5.66054 43.034 4.49768 42.1767 3.64031C41.3193 2.78293 40.1564 2.30126 38.9439 2.30126Z" fill="#E2E8F0"/>
<path d="M40.2977 10.0342C40.1057 10.0342 39.9804 9.9435 39.9217 9.76216L39.3457 8.09816L37.7137 8.45816L37.1937 9.77016C37.1617 9.84483 37.1137 9.90616 37.0497 9.95416C36.991 10.0022 36.9164 10.0262 36.8257 10.0262C36.719 10.0262 36.6257 9.98883 36.5457 9.91416C36.4657 9.8395 36.4257 9.7515 36.4257 9.65016C36.4257 9.58083 36.4444 9.50083 36.4817 9.41016L36.8017 8.61016C36.7697 8.5995 36.7457 8.58883 36.7297 8.57816C36.591 8.50883 36.5217 8.3915 36.5217 8.22616C36.5217 8.13016 36.5484 8.0475 36.6017 7.97816C36.6604 7.90883 36.735 7.8635 36.8257 7.84216L37.1217 7.77816L38.3057 4.77016C38.3377 4.69016 38.3884 4.62883 38.4577 4.58616C38.527 4.5435 38.6017 4.52216 38.6817 4.52216C38.767 4.52216 38.8417 4.5435 38.9057 4.58616C38.9697 4.62883 39.0177 4.6955 39.0497 4.78616L40.6417 9.40216C40.647 9.41283 40.6577 9.44483 40.6737 9.49816C40.6897 9.54616 40.6977 9.59683 40.6977 9.65016C40.6977 9.7515 40.6604 9.84216 40.5857 9.92216C40.511 9.99683 40.415 10.0342 40.2977 10.0342ZM39.0817 7.35416L38.6497 6.06616L38.0497 7.57816L39.0817 7.35416Z" fill="#33B3DD"/>
<path d="M34.2686 24.6493C34.0766 24.6493 33.9512 24.5586 33.8926 24.3773L33.3166 22.7133L31.6846 23.0733L31.1646 24.3853C31.1326 24.46 31.0846 24.5213 31.0206 24.5693C30.9619 24.6173 30.8872 24.6413 30.7966 24.6413C30.6899 24.6413 30.5966 24.604 30.5166 24.5293C30.4366 24.4546 30.3966 24.3666 30.3966 24.2653C30.3966 24.196 30.4152 24.116 30.4526 24.0253L30.7726 23.2253C30.7406 23.2146 30.7166 23.204 30.7006 23.1933C30.5619 23.124 30.4926 23.0066 30.4926 22.8413C30.4926 22.7453 30.5192 22.6626 30.5726 22.5933C30.6312 22.524 30.7059 22.4786 30.7966 22.4573L31.0926 22.3933L32.2766 19.3853C32.3086 19.3053 32.3592 19.244 32.4286 19.2013C32.4979 19.1586 32.5726 19.1373 32.6526 19.1373C32.7379 19.1373 32.8126 19.1586 32.8766 19.2013C32.9406 19.244 32.9886 19.3106 33.0206 19.4013L34.6126 24.0173C34.6179 24.028 34.6286 24.06 34.6446 24.1133C34.6606 24.1613 34.6686 24.212 34.6686 24.2653C34.6686 24.3666 34.6312 24.4573 34.5566 24.5373C34.4819 24.612 34.3859 24.6493 34.2686 24.6493ZM33.0526 21.9693L32.6206 20.6813L32.0206 22.1933L33.0526 21.9693Z" fill="#33B3DD"/>
<path d="M35.581 20.4102C35.4796 20.4102 35.3916 20.3729 35.317 20.2982C35.2423 20.2235 35.205 20.1355 35.205 20.0342V19.4022H34.565C34.4583 19.4022 34.3676 19.3649 34.293 19.2902C34.2183 19.2155 34.181 19.1249 34.181 19.0182C34.181 18.9115 34.2183 18.8235 34.293 18.7542C34.3676 18.6795 34.4583 18.6422 34.565 18.6422H35.205V18.0822C35.205 17.9755 35.2423 17.8875 35.317 17.8182C35.3916 17.7435 35.4796 17.7062 35.581 17.7062C35.6876 17.7062 35.7756 17.7435 35.845 17.8182C35.9196 17.8875 35.957 17.9755 35.957 18.0822V18.6422H36.605C36.7116 18.6422 36.7996 18.6795 36.869 18.7542C36.9436 18.8235 36.981 18.9115 36.981 19.0182C36.981 19.1249 36.9436 19.2155 36.869 19.2902C36.7996 19.3649 36.7116 19.4022 36.605 19.4022H35.957V20.0342C35.957 20.1355 35.9196 20.2235 35.845 20.2982C35.7756 20.3729 35.6876 20.4102 35.581 20.4102Z" fill="#33B3DD"/>
<path d="M33.912 28.7216C32.5328 28.7216 31.1845 28.3126 30.0378 27.5464C28.891 26.7802 27.9972 25.6911 27.4694 24.4168C26.9416 23.1426 26.8035 21.7405 27.0726 20.3878C27.3417 19.0351 28.0058 17.7926 28.981 16.8173C29.9563 15.8421 31.1988 15.1779 32.5515 14.9089C33.9042 14.6398 35.3063 14.7779 36.5806 15.3057C37.8548 15.8335 38.9439 16.7273 39.7102 17.874C40.4764 19.0208 40.8853 20.369 40.8853 21.7482C40.8811 23.5964 40.145 25.3676 38.8382 26.6745C37.5313 27.9813 35.7601 28.7174 33.912 28.7216ZM33.912 16.3891C32.8521 16.3891 31.8159 16.7034 30.9346 17.2923C30.0533 17.8811 29.3664 18.7181 28.9608 19.6974C28.5551 20.6766 28.449 21.7542 28.6558 22.7938C28.8626 23.8333 29.373 24.7883 30.1225 25.5378C30.872 26.2872 31.8269 26.7977 32.8665 27.0044C33.906 27.2112 34.9836 27.1051 35.9629 26.6995C36.9421 26.2938 37.7791 25.607 38.368 24.7256C38.9568 23.8443 39.2711 22.8082 39.2711 21.7482C39.2711 20.3269 38.7065 18.9638 37.7015 17.9587C36.6965 16.9537 35.3333 16.3891 33.912 16.3891Z" fill="#E2E8F0"/>
</svg>
