<svg width="25" height="24" viewBox="0 0 25 24" fill="none" xmlns="http://www.w3.org/2000/svg">
<path d="M21.8333 2.66667H19.1667V1.33333C19.1667 0.6 18.5667 0 17.8333 0H7.16667C6.43333 0 5.83333 0.6 5.83333 1.33333V2.66667H3.16667C1.7 2.66667 0.5 3.86667 0.5 5.33333V6.66667C0.5 10.0667 3.06 12.84 6.35333 13.2533C7.19333 15.2533 8.99333 16.76 11.1667 17.2V21.3333H7.16667C6.43333 21.3333 5.83333 21.9333 5.83333 22.6667C5.83333 23.4 6.43333 24 7.16667 24H17.8333C18.5667 24 19.1667 23.4 19.1667 22.6667C19.1667 21.9333 18.5667 21.3333 17.8333 21.3333H13.8333V17.2C16.0067 16.76 17.8067 15.2533 18.6467 13.2533C21.94 12.84 24.5 10.0667 24.5 6.66667V5.33333C24.5 3.86667 23.3 2.66667 21.8333 2.66667ZM3.16667 6.66667V5.33333H5.83333V10.4267C4.28667 9.86667 3.16667 8.4 3.16667 6.66667ZM21.8333 6.66667C21.8333 8.4 20.7133 9.86667 19.1667 10.4267V5.33333H21.8333V6.66667Z" fill="#1A202C"/>
</svg>
