<svg width="14" height="14" viewBox="0 0 14 14" fill="none" xmlns="http://www.w3.org/2000/svg">
<path d="M13.4792 6.99417L12.0559 5.36667L12.2542 3.21417L10.1484 2.73583L9.04587 0.875L7.06254 1.72667L5.07921 0.875L3.97671 2.73583L1.87087 3.20833L2.06921 5.36667L0.645874 6.99417L2.06921 8.62167L1.87087 10.78L3.97671 11.2583L5.07921 13.125L7.06254 12.2675L9.04587 13.1192L10.1484 11.2583L12.2542 10.78L12.0559 8.6275L13.4792 6.99417ZM11.175 7.8575L10.8484 8.23667L10.895 8.7325L11 9.87L9.40171 10.2317L9.14504 10.6633L8.56754 11.6433L7.52921 11.1942L7.06254 10.9958L6.60171 11.1942L5.56337 11.6433L4.98587 10.6692L4.72921 10.2375L3.13087 9.87583L3.23587 8.7325L3.28254 8.23667L2.95587 7.8575L2.20337 7L2.95587 6.13667L3.28254 5.7575L3.23004 5.25583L3.12504 4.12417L4.72337 3.7625L4.98004 3.33083L5.55754 2.35083L6.59587 2.8L7.06254 2.99833L7.52337 2.8L8.56171 2.35083L9.13921 3.33083L9.39587 3.7625L10.9942 4.12417L10.8892 5.26167L10.8425 5.7575L11.1692 6.13667L11.9217 6.99417L11.175 7.8575Z" fill="#4A5568"/>
<path d="M5.94837 8.02083L4.59504 6.66167L3.73171 7.53083L5.94837 9.75333L10.23 5.46L9.36671 4.59083L5.94837 8.02083Z" fill="#4A5568"/>
</svg>
