<svg width="12" height="8" viewBox="0 0 12 8" fill="none" xmlns="http://www.w3.org/2000/svg">
<path d="M3.88745 6.275L1.61245 4L3.88745 1.725C4.11495 1.4975 4.11495 1.13583 3.88745 0.908334C3.65995 0.680834 3.29828 0.680834 3.07078 0.908334L0.393281 3.58583C0.165781 3.81333 0.165781 4.18083 0.393281 4.40833L3.07078 7.09167C3.29828 7.31917 3.65995 7.31917 3.88745 7.09167C4.11495 6.86417 4.11495 6.5025 3.88745 6.275ZM7.73745 6.275L10.0124 4L7.73745 1.725C7.50995 1.4975 7.50995 1.13583 7.73745 0.908334C7.96495 0.680834 8.32662 0.680834 8.55412 0.908334L11.2316 3.58583C11.4591 3.81333 11.4591 4.18083 11.2316 4.40833L8.55412 7.09167C8.32662 7.31917 7.96495 7.31917 7.73745 7.09167C7.50995 6.86417 7.50995 6.5025 7.73745 6.275Z" fill="#4A5568"/>
</svg>
