<svg width="27" height="16" viewBox="0 0 27 16" fill="none" xmlns="http://www.w3.org/2000/svg">
<path d="M9.1 13.2L3.9 8L9.1 2.8C9.62 2.28 9.62 1.45333 9.1 0.933335C8.58 0.413335 7.75333 0.413335 7.23334 0.933335L1.11334 7.05333C0.593335 7.57333 0.593335 8.41333 1.11334 8.93333L7.23334 15.0667C7.75333 15.5867 8.58 15.5867 9.1 15.0667C9.62 14.5467 9.62 13.72 9.1 13.2ZM17.9 13.2L23.1 8L17.9 2.8C17.38 2.28 17.38 1.45333 17.9 0.933335C18.42 0.413335 19.2467 0.413335 19.7667 0.933335L25.8867 7.05333C26.4067 7.57333 26.4067 8.41333 25.8867 8.93333L19.7667 15.0667C19.2467 15.5867 18.42 15.5867 17.9 15.0667C17.38 14.5467 17.38 13.72 17.9 13.2Z" fill="#1A202C"/>
</svg>
