<svg width="28" height="24" viewBox="0 0 28 24" fill="none" xmlns="http://www.w3.org/2000/svg">
<path d="M3.93831 13.5683V17.315C3.93831 18.2883 4.47165 19.195 5.32498 19.6617L11.9916 23.3017C12.7916 23.7417 13.7516 23.7417 14.5516 23.3017L21.2183 19.6617C22.0716 19.195 22.605 18.2883 22.605 17.315V13.5683L14.5516 17.9683C13.7516 18.4083 12.7916 18.4083 11.9916 17.9683L3.93831 13.5683ZM11.9916 0.688332L0.751646 6.82166C-0.168355 7.32833 -0.168355 8.66166 0.751646 9.16833L11.9916 15.3017C12.7916 15.7417 13.7516 15.7417 14.5516 15.3017L25.2716 9.44833V17.3283C25.2716 18.0617 25.8716 18.6617 26.605 18.6617C27.3383 18.6617 27.9383 18.0617 27.9383 17.3283V8.78167C27.9383 8.28833 27.6716 7.84833 27.245 7.60833L14.5516 0.688332C13.7516 0.261665 12.7916 0.261665 11.9916 0.688332Z" fill="#1A202C"/>
</svg>
