<svg width="24" height="28" viewBox="0 0 24 28" fill="none" xmlns="http://www.w3.org/2000/svg">
<path d="M12 13.257C9.57333 10.9903 6.50667 9.40364 3.09333 8.7903C1.48 8.5103 0 9.7903 0 11.4303V19.7503C0 21.9903 0.96 23.1636 2.28 23.337C5.61333 23.7636 8.64 25.137 11.12 27.1636C11.5867 27.5503 12.3467 27.5903 12.8133 27.217C15.3067 25.177 18.36 23.777 21.72 23.3503C22.9733 23.177 24 21.937 24 20.657V11.4303C24 9.7903 22.52 8.5103 20.9067 8.7903C17.4933 9.40364 14.4267 10.9903 12 13.257ZM12 8.52364C14.2133 8.52364 16 6.73697 16 4.52364C16 2.3103 14.2133 0.523636 12 0.523636C9.78667 0.523636 8 2.3103 8 4.52364C8 6.73697 9.78667 8.52364 12 8.52364Z" fill="#1A202C"/>
</svg>
